HIERARCHY
ROOT Hips
{
	OFFSET -0.179506 -22.333345 2.821913
	CHANNELS 6 Xposition Yposition Zposition Zrotation Yrotation Xrotation 
	JOINT LeftUpLeg
	{
		OFFSET 6.951974 -9.140623 -0.681533
		CHANNELS 3 Zrotation Yrotation Xrotation
		JOINT LeftLeg
		{
			OFFSET 3.427654 -37.519855 -0.449580
			CHANNELS 3 Zrotation Yrotation Xrotation
			JOINT LeftFoot
			{
				OFFSET -1.359570 -39.796059 -4.369333
				CHANNELS 3 Zrotation Yrotation Xrotation
				JOINT LeftToe
				{
					OFFSET 2.635814 -5.579078 11.928840
					CHANNELS 3 Zrotation Yrotation Xrotation
					End Site
					{
						OFFSET 0.000000 0.000000 0.000000
					}
				}
			}
		}
	}
	JOINT RightUpLeg
	{
		OFFSET -6.767048 -9.052170 -0.431982
		CHANNELS 3 Zrotation Yrotation Xrotation
		JOINT RightLeg
		{
			OFFSET -3.829005 -38.256897 -0.885003
			CHANNELS 3 Zrotation Yrotation Xrotation
			JOINT RightFoot
			{
				OFFSET 1.577377 -39.841461 -4.231180
				CHANNELS 3 Zrotation Yrotation Xrotation
				JOINT RightToe
				{
					OFFSET -2.537174 -4.814398 12.334795
					CHANNELS 3 Zrotation Yrotation Xrotation
					End Site
					{
						OFFSET 0.000000 0.000000 0.000000
					}
				}
			}
		}
	}
	JOINT Spine
	{
		OFFSET -0.253288 10.896323 -2.669631
		CHANNELS 3 Zrotation Yrotation Xrotation
		JOINT Spine1
		{
			OFFSET 0.548704 13.518043 0.109247
			CHANNELS 3 Zrotation Yrotation Xrotation
			JOINT Spine2
			{
				OFFSET 0.145701 5.292222 2.542457
				CHANNELS 3 Zrotation Yrotation Xrotation
				JOINT Neck
				{
					OFFSET -0.277840 21.387037 -4.285703
					CHANNELS 3 Zrotation Yrotation Xrotation
					JOINT Head
					{
						OFFSET 0.515184 6.496960 5.134897
						CHANNELS 3 Zrotation Yrotation Xrotation
						End Site
						{
							OFFSET 0.000000 0.000000 0.000000
						}
					}
				}
				JOINT LeftShoulder
				{
					OFFSET 7.884473 12.174932 -3.408961
					CHANNELS 3 Zrotation Yrotation Xrotation
					JOINT LeftArm
					{
						OFFSET 9.097692 3.046888 -0.886815
						CHANNELS 3 Zrotation Yrotation Xrotation
						JOINT LeftForeArm
						{
							OFFSET 25.961220 -1.277207 -2.745643
							CHANNELS 3 Zrotation Yrotation Xrotation
							JOINT LeftHand
							{
								OFFSET 24.923361 0.898606 -0.117091
								CHANNELS 3 Zrotation Yrotation Xrotation
								End Site
								{
									OFFSET 0.000000 0.000000 0.000000
								}
							}
						}
					}
				}
				JOINT RightShoulder
				{
					OFFSET -8.175920 11.883285 -3.861528
					CHANNELS 3 Zrotation Yrotation Xrotation
					JOINT RightArm
					{
						OFFSET -9.601238 3.255117 -0.914307
						CHANNELS 3 Zrotation Yrotation Xrotation
						JOINT RightForeArm
						{
							OFFSET -25.374195 -1.332924 -2.140099
							CHANNELS 3 Zrotation Yrotation Xrotation
							JOINT RightHand
							{
								OFFSET -25.529810 0.777228 -0.555919
								CHANNELS 3 Zrotation Yrotation Xrotation
								End Site
								{
									OFFSET 0.000000 0.000000 0.000000
								}
							}
						}
					}
				}
			}
		}
	}
}
MOTION
Frames: 13
Frame Time: 0.033333
-7.518905 -65.383240 42.571228 -119.927714 5.726113 87.824282 11.480897 0.180145 -16.193336 -16.982840 8.337554 128.260852 -1.303399 9.990646 -31.508694 nan nan nan -27.753916 -25.167207 -84.071618 -10.753087 -17.976972 124.352909 3.594051 -4.615900 -25.852518 nan nan nan 13.179982 -12.819669 64.549315 3.832018 12.201754 -7.738363 2.542882 3.104626 5.276957 7.852414 -19.892922 -9.807811 6.468600 -19.631322 -8.912268 -16.786620 3.180487 0.975364 -55.847363 13.292795 -0.710195 3.982073 -37.530802 8.426234 -5.610865 -13.421565 -24.669807 8.868821 14.770163 -1.802727 18.727601 0.248084 -10.622890 -10.311001 40.326425 -9.061858 7.835260 0.727915 4.977637 
-7.526236 -65.353767 42.590176 -119.907713 5.667423 87.690557 11.325103 0.416683 -16.040746 -17.094486 8.138219 128.273930 -1.416155 10.076348 -31.585618 nan nan nan -28.006362 -25.251323 -83.782444 -10.794159 -18.044030 124.424843 3.856243 -4.354189 -25.772388 nan nan nan 13.162906 -12.857614 64.756589 3.806578 12.045766 -7.795997 2.488783 3.112979 5.232888 7.889873 -19.722507 -9.639613 6.499636 -19.714747 -9.144248 -16.882993 3.265353 0.980002 -55.701483 13.333492 -0.772289 3.991584 -37.627389 8.533497 -5.791984 -13.672714 -24.633262 8.912524 14.745787 -1.717999 18.816303 0.469476 -10.641783 -10.557342 40.399687 -9.129691 6.972811 0.707382 5.237096 
-7.602946 -65.312622 42.609886 -119.801809 5.735974 87.303344 11.276883 0.332277 -15.496755 -17.006234 7.885311 128.020201 -1.708836 10.307181 -31.554350 nan nan nan -28.387220 -25.448432 -82.946465 -11.135819 -17.989712 124.596851 3.826621 -3.460030 -26.186966 nan nan nan 13.473732 -13.174207 65.442544 3.496428 11.883294 -8.875653 2.339622 3.178840 5.815894 7.907749 -18.522577 -8.546541 7.347732 -20.707441 -10.909314 -16.557888 3.183029 0.970765 -55.500771 13.172686 -0.775133 2.551609 -37.235154 9.746639 -2.106326 -13.093026 -26.634039 8.316658 14.121472 -1.102399 20.638377 0.618802 -9.624260 -12.211675 40.196659 -10.253632 -12.445375 -0.984666 6.245579 
-7.631245 -65.300514 42.598656 -119.802502 5.746568 87.109122 11.201836 0.385121 -15.260832 -17.003178 7.765070 127.917648 -1.886220 10.382212 -31.562361 nan nan nan -28.479256 -25.511152 -82.703241 -11.142072 -17.999376 124.620554 3.805730 -3.294059 -26.288041 nan nan nan 13.552409 -13.229413 65.603946 3.448835 11.894382 -8.922108 2.360441 3.111092 5.818937 7.913782 -18.423003 -8.437680 7.235820 -20.762716 -11.041376 -16.743186 3.100637 1.051721 -55.280592 13.057977 -0.785807 2.427346 -37.027793 9.688014 -1.816317 -13.258820 -26.745761 8.465289 14.161849 -0.999741 20.197930 0.667675 -9.645862 -11.291453 39.961363 -10.248633 -14.852330 -0.482239 5.320020 
-7.583763 -65.230156 42.800564 -119.930385 5.730063 86.673274 11.574791 0.158291 -15.082387 -14.988507 6.196877 128.302307 -2.956817 8.042285 -30.645601 nan nan nan -28.324501 -25.098903 -82.191443 -11.703459 -17.332931 124.457911 4.051294 -2.655347 -26.309538 nan nan nan 13.272754 -13.335170 67.244051 2.952555 12.097780 -10.054066 2.502540 3.173422 5.832864 7.837444 -18.255293 -8.069148 7.649482 -20.723001 -11.886797 -16.414424 3.130299 1.161096 -55.662274 12.606525 -1.075802 2.710142 -36.473546 9.993574 -2.778179 -14.346630 -26.406229 8.091219 14.182490 -1.547255 20.512896 0.687325 -9.490916 -10.589890 39.659634 -10.153514 -16.112216 0.206129 4.628914 
-7.816467 -65.096893 42.913315 -119.673395 5.636923 85.314166 11.327277 -1.269904 -12.863960 -13.387777 4.879888 126.656562 -12.115187 1.090854 -26.667359 nan nan nan -30.968650 -25.347449 -78.928453 -13.902384 -16.453559 125.283746 6.597906 3.262087 -26.568488 nan nan nan 13.370913 -13.826058 69.439683 2.799963 11.860143 -11.804073 2.483703 3.266155 6.770536 8.311132 -18.141021 -4.690638 7.777417 -23.145858 -18.472217 -16.072087 3.449775 1.214171 -56.488078 11.050832 -0.431267 4.591127 -34.044817 10.036558 -5.259066 -19.451890 -26.036427 7.278730 13.399303 -3.655700 20.873869 1.034914 -8.252490 -8.816788 37.298746 -8.021859 -18.389922 6.011359 0.330284 
-7.839851 -64.956703 42.900009 -119.696224 5.715413 84.871552 11.443191 -1.108472 -12.149081 -13.570493 4.573683 126.396978 -12.694932 0.740873 -26.539219 nan nan nan -31.007111 -25.173663 -78.556043 -13.890138 -16.248487 125.297803 6.741566 3.380697 -26.533552 nan nan nan 13.175235 -13.913136 70.074888 2.771809 11.822212 -11.678527 2.562901 3.353944 6.468155 8.315726 -18.148083 -4.381763 7.854568 -22.913576 -18.900023 -16.247476 3.475898 1.108996 -56.263091 11.198879 -0.477612 4.430368 -34.042120 9.762725 -5.390067 -19.421306 -25.771659 7.263895 13.620000 -3.676584 20.907839 0.805698 -8.155172 -8.887395 37.272430 -8.396836 -18.181622 6.042188 0.507282 
-7.843870 -64.842896 42.895729 -119.756894 5.810482 84.573756 11.590624 -1.014502 -11.628461 -13.653276 4.415337 126.205527 -12.841375 1.102491 -27.062129 nan nan nan -30.937969 -25.036862 -78.400817 -13.795881 -16.220273 125.254315 6.792189 3.198487 -26.453993 nan nan nan 13.068073 -13.918200 70.553570 2.755158 11.883082 -11.692783 2.651644 3.424318 6.318380 8.260242 -18.374073 -4.193492 7.951159 -22.770922 -19.027733 -16.389479 3.394590 1.092032 -56.135818 11.267696 -0.478053 4.323131 -33.988849 9.657300 -5.325201 -19.337604 -25.642431 7.260628 13.774628 -3.679320 20.859420 0.485471 -8.195424 -8.894748 37.280566 -8.615941 -17.777413 5.867234 0.564892 
-7.830204 -64.748817 42.906330 -119.795370 5.904912 84.374905 11.698964 -0.952304 -11.277997 -13.634868 4.255354 126.086987 -12.843725 1.480058 -27.403849 nan nan nan -30.884281 -24.942736 -78.267299 -13.714840 -16.217227 125.201059 6.820464 3.156814 -26.458237 nan nan nan 12.990732 -13.926931 70.946718 2.725887 11.982997 -11.795978 2.721151 3.469371 6.245478 8.220959 -18.473737 -4.027442 8.024955 -22.751802 -19.093295 -16.445976 3.303896 1.160841 -56.090369 11.263363 -0.432619 4.234625 -33.942719 9.829332 -5.039287 -19.385781 -25.785438 7.226536 13.813618 -3.733071 20.857669 0.284369 -8.185529 -8.789062 37.378918 -8.495961 -18.021852 5.892405 0.479982 
-7.826870 -64.681252 42.915958 -119.805624 5.959611 84.210764 11.677194 -0.937798 -10.962632 -13.624093 4.103954 126.000355 -12.755002 1.712056 -27.524232 nan nan nan -30.865378 -24.920148 -78.137055 -13.613384 -16.127342 125.158380 6.840685 3.233027 -26.406600 nan nan nan 12.943030 -13.942567 71.226984 2.709023 12.078607 -11.852108 2.785347 3.478086 6.222560 8.215542 -18.546694 -3.897333 8.082795 -22.714718 -19.222107 -16.544866 3.210886 1.213617 -56.051792 11.214003 -0.437082 4.201770 -33.907246 9.874548 -4.881585 -19.442928 -25.848710 7.245680 13.770077 -3.788412 20.833739 0.167621 -8.249986 -8.799159 37.573960 -8.327047 -18.427931 6.008575 0.739872 
-7.832271 -64.607338 42.912838 -119.863885 5.994265 84.058596 11.713028 -0.912053 -10.646548 -13.683444 4.059688 125.881157 -12.825685 1.788272 -27.562691 nan nan nan -30.838806 -24.898591 -78.027255 -13.564098 -16.065941 125.106769 6.809591 3.260118 -26.391515 nan nan nan 12.879090 -13.903906 71.474324 2.718654 12.130176 -11.844312 2.834254 3.505343 6.159687 8.227049 -18.539666 -3.759859 8.157455 -22.654999 -19.405936 -16.702892 3.145708 1.245834 -55.932770 11.233972 -0.468150 4.187077 -33.955989 9.827867 -5.012394 -19.459053 -25.848105 7.420791 13.707512 -3.808743 20.721401 0.050717 -8.320308 -8.935615 37.872491 -8.168136 -18.380884 5.928035 0.898151 
-7.846609 -64.528900 42.909164 -119.939981 6.040676 83.872436 11.840393 -0.811231 -10.289877 -13.806029 4.033937 125.728479 -13.118558 1.686772 -27.437595 nan nan nan -30.805037 -24.869726 -77.875764 -13.576414 -16.022293 125.058856 6.773264 3.226442 -26.336975 nan nan nan 12.843975 -13.854294 71.731547 2.726981 12.133550 -11.772838 2.897928 3.491083 6.000448 8.166970 -18.645399 -3.503043 8.251178 -22.492241 -19.620681 -16.877781 3.093405 1.284612 -55.802423 11.327410 -0.535584 4.148351 -33.998337 9.734632 -5.166768 -19.448682 -25.805865 7.521236 13.749829 -3.856371 20.577491 -0.116350 -8.328520 -8.823236 38.104697 -8.010995 -18.339038 5.792327 0.854210 
-7.873335 -64.467659 42.909599 -119.988752 6.106886 83.680738 11.944530 -0.673168 -9.938621 -13.939162 3.960167 125.600437 -13.446189 1.598384 -27.268770 nan nan nan -30.766970 -24.835093 -77.683866 -13.539918 -15.976618 125.026094 6.783311 3.223796 -26.316792 nan nan nan 12.847722 -13.884411 71.966739 2.726141 12.121456 -11.710017 2.952692 3.497742 5.873139 8.017138 -18.875436 -3.201816 8.367160 -22.280011 -19.906651 -17.067600 3.011966 1.296870 -55.667231 11.438769 -0.614304 4.048093 -34.015099 9.623503 -5.088114 -19.389218 -25.721944 7.480790 13.877007 -3.847232 20.502662 -0.337145 -8.376141 -8.659625 38.252941 -8.003493 -18.535625 5.654237 0.956781 
